# xmcd
#
# Track frame offsets:
#	150
#	11855
#	31971
#	43684
#	61548
#	74660
#	93134
#	108155
#	121385
#	132559
#	148280
#	162858
#
# Disc length: 2381 seconds
#
# Revision: 1
# Processed by: cddbd v1.5.1PL2 Copyright (c) Steve Scherf et al.
# Submitted via: audiograbber 1.83.01
#
DISCID=a7094b0c
DTITLE=Shane Worley - Rosie's On A roll
DYEAR=2001
DGENRE=Country
TTITLE0=The Final Touch
TTITLE1=The Easy Part Of Heartache
TTITLE2=Blues Singer With A Red Guitar
TTITLE3=Over The Hill
TTITLE4=She's Got It And Gone
TTITLE5=Reflection In A Bottle
TTITLE6=Lord, Let Me Settle Down
TTITLE7=Yesterday's Hero
TTITLE8=Rosie's On A Roll
TTITLE9=All Fall Down
TTITLE10=Up In Coke
TTITLE11=Wine Women And Song
EXTD=
EXTT0=
EXTT1=
EXTT2=
EXTT3=
EXTT4=
EXTT5=
EXTT6=
EXTT7=
EXTT8=
EXTT9=
EXTT10=
EXTT11=
PLAYORDER=
